<?xml version="1.0" encoding="utf-8"?>
<!-- Generator: Adobe Illustrator 14.0.0, SVG Export Plug-In . SVG Version: 6.00 Build 43363)  -->
<!DOCTYPE svg PUBLIC "-//W3C//DTD SVG 1.1//EN" "http://www.w3.org/Graphics/SVG/1.1/DTD/svg11.dtd">
<svg version="1.1" id="Layer_1" xmlns="http://www.w3.org/2000/svg" xmlns:xlink="http://www.w3.org/1999/xlink" x="0px" y="0px"
	 width="240px" height="70px" viewBox="186 361 240 70" enable-background="new 186 361 240 70" xml:space="preserve">
<g>
	<g>
		<path d="M268.8,405.4L268,398.8h-4.4l-0.8,6.601h-4l4-29.9h5.9l4.1,29.9H268.8z M265.8,380.1L264,395h3.5L265.8,380.1z"/>
		<path d="M288.2,375.5h4v24.2c0,4.5-2.9,6.3-6.1,6.3c-3.4,0-6.2-1.8-6.2-6.3v-24.2h4v23.7c0,2.199,1.1,3,2.2,3s2.2-0.801,2.2-3
			L288.2,375.5L288.2,375.5z"/>
		<path d="M309.3,393.9h-2.7v-3.8h6.601v9.6c0,4.5-2.9,6.3-6.3,6.3c-3.6,0-6.4-1.8-6.4-6.3v-18.4c0-4.4,2.7-6.3,6.4-6.3
			s6.3,1.9,6.3,6.3v4.7h-4v-4.1c0-2.2-1.1-3-2.4-3c-1.3,0-2.4,0.8-2.4,3v17.4c0,2.2,1.1,3,2.4,3c1.301,0,2.4-0.8,2.4-3L309.3,393.9
			L309.3,393.9z"/>
		<path d="M329.7,375.5h4v24.2c0,4.5-2.9,6.3-6.101,6.3c-3.399,0-6.2-1.8-6.2-6.3v-24.2h4.001v23.7c0,2.199,1.1,3,2.199,3
			c1.101,0,2.2-0.801,2.2-3L329.7,375.5L329.7,375.5z"/>
		<path d="M354.1,399.7c0,4.3-2.5,6.3-6.199,6.3c-3.601,0-6.2-2-6.2-6.3v-4.3h4v3.8c0,2.199,1.1,3,2.2,3c1.1,0,2.199-0.801,2.199-3
			v-2.5c0-3.3-8.399-6.1-8.399-11.7v-3.8c0-4.4,2.899-6.3,6.2-6.3c3.8,0,6.199,1.8,6.199,6.3v4.7h-4v-4.2c0-2.2-1.1-3-2.199-3
			c-1.101,0-2.2,0.8-2.2,3v2.5c0,4.5,8.399,6.1,8.399,11.6V399.7z"/>
		<path d="M364.7,405.4V379.3H361v-3.8h11.4v3.8h-3.7V405.4H364.7z"/>
		<path d="M379.7,405.4v-29.9h4v29.9H379.7z"/>
		<path d="M401.5,405.4l-5.3-20l0.1,20h-4v-29.9h5l5.5,20.3l-0.1-20.3h4v29.9H401.5z"/>
		<path d="M415.3,405.4v-29.9H426v3.8h-6.7v9.1h6.4v3.8h-6.4v9.399h6.7v3.801H415.3z"/>
	</g>
	<g>
		<path d="M271.7,419.6v-1.499h22.1v1.499H271.7z"/>
		<path d="M308.2,423v-7.8h3.899c1.8,0,2.7,1.199,2.7,2.6s-1,2.601-2.7,2.601H310.2v2.6H308.2z M312.8,417.8c0-0.5-0.399-0.8-1-0.8
			h-1.6v1.7h1.6C312.4,418.6,312.8,418.3,312.8,417.8z"/>
		<path d="M333.5,423l-1.3-2.6h-1v2.6h-2v-7.8h3.9c1.699,0,2.699,1.1,2.699,2.6c0,1.4-0.8,2.101-1.6,2.3l1.6,2.9H333.5z
			 M333.7,417.8c0-0.5-0.4-0.8-1-0.8H331.1v1.7h1.601C333.3,418.6,333.7,418.4,333.7,417.8z"/>
		<path d="M350.2,423v-7.8h5.7v1.8h-3.7v1.2h3.6v1.8h-3.6v1.3h3.7v1.7H350.2z"/>
		<path d="M370.5,423v-7.8h3.9c1.8,0,2.699,1.199,2.699,2.6s-1,2.601-2.699,2.601h-1.9v2.6H370.5z M375.1,417.8
			c0-0.5-0.399-0.8-1-0.8h-1.6v1.7h1.6C374.7,418.6,375.1,418.3,375.1,417.8z"/>
		<path d="M391.1,419.6v-1.499H413.2v1.499H391.1z"/>
	</g>
	<g>
		<path d="M213.8,365.2c11,0,19.4,3,23.9,5v29.5c0,8.4-2.5,13.6-8.5,17.7c-2.4,1.699-5.2,3.1-8,4.5c-2.4,1.2-4.8,2.399-7.1,3.899
			c-2.3-1.399-4.8-2.699-7.1-3.899c-2.9-1.5-5.6-2.801-8-4.5c-6.1-4.2-8.5-9.3-8.5-17.7v-29.4C197.6,367,205.5,365.2,213.8,365.2
			 M213.8,361c-8.8,0-18.3,1.8-27.8,6.7v32.1c0,8.9,2.5,15.801,10.4,21.2c5.5,3.8,12.1,6.1,17.6,10c5.4-3.9,12.1-6.2,17.6-10
			c7.9-5.399,10.4-12.3,10.4-21.2c0-10.7,0-21.4,0-32.1C235.4,364.2,225.3,361,213.8,361L213.8,361z"/>
		<path d="M226.1,401.3c-0.5,0-0.9-0.2-1.1-0.6l0,0v-0.2l-5.7-21.2c-0.5-1.4-1.8-2.5-3.4-2.5l0,0H214h-0.1h-4.6l0,0h-1.8l-1.1,4h3.1
			l-1.8,1.9l-4.8,17.8l-0.1,0.2c-0.1,0.399-0.4,0.6-0.9,0.6h-1l-1.1,4.2h3l0,0c2,0,3.9-1.3,4.4-3.4l0,0l2.1-7.899h9.2l2.1,7.899l0,0
			l0,0c0.6,2.101,2.4,3.4,4.5,3.4l0,0h1.3l1.1-4.2H226.1z M210.4,390.2l2.5-9.4h1.4c0.4,0,0.7,0.3,0.8,0.6l2.4,8.8H210.4z"/>
	</g>
</g>
</svg>
